<svg width="167" height="47" viewBox="0 0 167 47" fill="none" xmlns="http://www.w3.org/2000/svg">
<path d="M21.3045 24.05L0.354492 36.55V32.8L16.3545 23.05L0.354492 13.25V9.6L21.3045 22.2V24.05ZM21.2451 39.1V36H40.2951V39.1H21.2451Z" fill="#0094FF"/>
<path d="M61.1264 33.1C62.4597 33.1 63.743 32.8333 64.9764 32.3C66.2097 31.7667 67.3597 30.9833 68.4264 29.95L70.7264 32.45C69.393 33.7167 67.893 34.7 66.2264 35.4C64.5597 36.1 62.8264 36.45 61.0264 36.45C59.2597 36.45 57.593 36.1167 56.0264 35.45C54.4597 34.7833 53.1097 33.8667 51.9764 32.7C50.843 31.5333 49.943 30.15 49.2764 28.55C48.6097 26.95 48.2764 25.25 48.2764 23.45C48.2764 21.65 48.6097 19.9667 49.2764 18.4C49.943 16.8 50.843 15.4167 51.9764 14.25C53.1097 13.0833 54.4597 12.1667 56.0264 11.5C57.593 10.8 59.2597 10.45 61.0264 10.45C62.8264 10.45 64.5764 10.8 66.2764 11.5C68.0097 12.2 69.5264 13.1667 70.8264 14.4L68.4764 17.1C67.4764 16.0667 66.3264 15.2667 65.0264 14.7C63.7264 14.1333 62.4097 13.85 61.0764 13.85C59.8097 13.85 58.6097 14.1 57.4764 14.6C56.343 15.1 55.3597 15.7833 54.5264 16.65C53.7264 17.5167 53.093 18.5333 52.6264 19.7C52.1597 20.8667 51.9264 22.1167 51.9264 23.45C51.9264 24.8167 52.1597 26.1 52.6264 27.3C53.1264 28.4667 53.7764 29.4833 54.5764 30.35C55.4097 31.1833 56.393 31.85 57.5264 32.35C58.6597 32.85 59.8597 33.1 61.1264 33.1ZM78.7611 0.15V36H75.0611V0.999998L78.7611 0.15ZM83.9209 23.45C83.9209 21.65 84.2542 19.95 84.9209 18.35C85.5876 16.75 86.4876 15.3667 87.6209 14.2C88.7876 13.0333 90.1542 12.1167 91.7209 11.45C93.2876 10.7833 94.9542 10.45 96.7209 10.45C98.4876 10.45 100.138 10.7833 101.671 11.45C103.238 12.1167 104.588 13.0333 105.721 14.2C106.888 15.3667 107.804 16.75 108.471 18.35C109.138 19.95 109.471 21.65 109.471 23.45C109.471 25.2833 109.138 27 108.471 28.6C107.804 30.2 106.888 31.5833 105.721 32.75C104.588 33.9167 103.238 34.8333 101.671 35.5C100.138 36.1667 98.4876 36.5 96.7209 36.5C94.9542 36.5 93.2876 36.1667 91.7209 35.5C90.1542 34.8333 88.7876 33.9167 87.6209 32.75C86.4876 31.5833 85.5876 30.2 84.9209 28.6C84.2542 27 83.9209 25.2833 83.9209 23.45ZM96.7209 33.2C97.9876 33.2 99.1709 32.95 100.271 32.45C101.404 31.95 102.371 31.2667 103.171 30.4C104.004 29.5 104.654 28.4667 105.121 27.3C105.588 26.1 105.821 24.8167 105.821 23.45C105.821 22.0833 105.588 20.8167 105.121 19.65C104.654 18.45 104.004 17.4167 103.171 16.55C102.371 15.6833 101.404 15 100.271 14.5C99.1709 14 97.9876 13.75 96.7209 13.75C95.4542 13.75 94.2542 14 93.1209 14.5C92.0209 15 91.0542 15.6833 90.2209 16.55C89.4209 17.4167 88.7709 18.45 88.2709 19.65C87.8042 20.8167 87.5709 22.0833 87.5709 23.45C87.5709 24.8167 87.8042 26.1 88.2709 27.3C88.7376 28.4667 89.3709 29.5 90.1709 30.4C91.0042 31.2667 91.9876 31.95 93.1209 32.45C94.2542 32.95 95.4542 33.2 96.7209 33.2ZM118.162 10.95V26.05C118.162 28.25 118.795 30 120.062 31.3C121.329 32.6 123.029 33.25 125.162 33.25C126.662 33.25 127.995 32.9167 129.162 32.25C130.362 31.55 131.329 30.5833 132.062 29.35V10.95H135.762V36H132.062V33.1C131.095 34.2333 129.945 35.0833 128.612 35.65C127.312 36.2167 125.845 36.5 124.212 36.5C121.345 36.5 119.012 35.6 117.212 33.8C115.412 32 114.512 29.6667 114.512 26.8V10.95H118.162ZM142.053 46.25V10.95H145.703V13.65C146.77 12.6167 147.987 11.85 149.353 11.35C150.753 10.8167 152.237 10.55 153.803 10.55C155.57 10.55 157.22 10.8833 158.753 11.55C160.287 12.2167 161.62 13.1333 162.753 14.3C163.887 15.4333 164.77 16.8 165.403 18.4C166.07 19.9667 166.403 21.65 166.403 23.45C166.403 25.25 166.07 26.95 165.403 28.55C164.77 30.15 163.887 31.5333 162.753 32.7C161.62 33.8333 160.27 34.7333 158.703 35.4C157.17 36.0667 155.52 36.4 153.753 36.4C152.287 36.4 150.87 36.15 149.503 35.65C148.137 35.15 146.887 34.4333 145.753 33.5V46.25H142.053ZM153.453 13.8C151.887 13.8 150.42 14.1167 149.053 14.75C147.72 15.35 146.62 16.2 145.753 17.3V29.7C146.62 30.7667 147.737 31.6167 149.103 32.25C150.47 32.85 151.92 33.15 153.453 33.15C156.087 33.15 158.287 32.2333 160.053 30.4C161.853 28.5333 162.753 26.2333 162.753 23.5C162.753 22.1333 162.503 20.8667 162.003 19.7C161.537 18.5 160.887 17.4667 160.053 16.6C159.22 15.7333 158.237 15.05 157.103 14.55C155.97 14.05 154.753 13.8 153.453 13.8Z" fill="white"/>
</svg>
