<svg width="166" height="66" viewBox="0 0 166 66" fill="none" xmlns="http://www.w3.org/2000/svg">
<path d="M1.79477 26.1958C2.4604 25.3559 3.64947 25.252 4.45064 25.9638L15.9127 36.1474C16.7139 36.8592 16.8237 38.1171 16.1581 38.9571V38.9571C15.4925 39.797 14.3034 39.9008 13.5022 39.189L2.04019 29.0055C1.23902 28.2937 1.12914 27.0358 1.79477 26.1958V26.1958Z" fill="#0094FF"/>
<path d="M1.95523 49.3444C1.2896 48.5044 1.39948 47.2465 2.20065 46.5347L13.6627 36.3511C14.4639 35.6393 15.6529 35.7432 16.3186 36.5831V36.5831C16.9842 37.4231 16.8743 38.681 16.0731 39.3928L4.6111 49.5763C3.80993 50.2881 2.62086 50.1843 1.95523 49.3444V49.3444Z" fill="#0094FF"/>
<path d="M17.25 49.4118C17.25 48.5346 17.9611 47.8235 18.8382 47.8235H34.4118C35.2889 47.8235 36 48.5346 36 49.4118V49.4118C36 50.2889 35.2889 51 34.4118 51H18.8382C17.9611 51 17.25 50.2889 17.25 49.4118V49.4118Z" fill="#99D4FF"/>
<path d="M58.2904 48.1C59.6238 48.1 60.9071 47.8333 62.1404 47.3C63.3738 46.7667 64.5238 45.9833 65.5904 44.95L67.8904 47.45C66.5571 48.7167 65.0571 49.7 63.3904 50.4C61.7238 51.1 59.9904 51.45 58.1904 51.45C56.4238 51.45 54.7571 51.1167 53.1904 50.45C51.6238 49.7833 50.2738 48.8667 49.1404 47.7C48.0071 46.5333 47.1071 45.15 46.4404 43.55C45.7738 41.95 45.4404 40.25 45.4404 38.45C45.4404 36.65 45.7738 34.9667 46.4404 33.4C47.1071 31.8 48.0071 30.4167 49.1404 29.25C50.2738 28.0833 51.6238 27.1667 53.1904 26.5C54.7571 25.8 56.4238 25.45 58.1904 25.45C59.9904 25.45 61.7404 25.8 63.4404 26.5C65.1738 27.2 66.6904 28.1667 67.9904 29.4L65.6404 32.1C64.6404 31.0667 63.4904 30.2667 62.1904 29.7C60.8904 29.1333 59.5738 28.85 58.2404 28.85C56.9738 28.85 55.7738 29.1 54.6404 29.6C53.5071 30.1 52.5238 30.7833 51.6904 31.65C50.8904 32.5167 50.2571 33.5333 49.7904 34.7C49.3238 35.8667 49.0904 37.1167 49.0904 38.45C49.0904 39.8167 49.3238 41.1 49.7904 42.3C50.2904 43.4667 50.9404 44.4833 51.7404 45.35C52.5738 46.1833 53.5571 46.85 54.6904 47.35C55.8238 47.85 57.0238 48.1 58.2904 48.1ZM75.9252 15.15V51H72.2252V16L75.9252 15.15ZM81.085 38.45C81.085 36.65 81.4183 34.95 82.085 33.35C82.7516 31.75 83.6516 30.3667 84.785 29.2C85.9516 28.0333 87.3183 27.1167 88.885 26.45C90.4516 25.7833 92.1183 25.45 93.885 25.45C95.6516 25.45 97.3016 25.7833 98.835 26.45C100.402 27.1167 101.752 28.0333 102.885 29.2C104.052 30.3667 104.968 31.75 105.635 33.35C106.302 34.95 106.635 36.65 106.635 38.45C106.635 40.2833 106.302 42 105.635 43.6C104.968 45.2 104.052 46.5833 102.885 47.75C101.752 48.9167 100.402 49.8333 98.835 50.5C97.3016 51.1667 95.6516 51.5 93.885 51.5C92.1183 51.5 90.4516 51.1667 88.885 50.5C87.3183 49.8333 85.9516 48.9167 84.785 47.75C83.6516 46.5833 82.7516 45.2 82.085 43.6C81.4183 42 81.085 40.2833 81.085 38.45ZM93.885 48.2C95.1516 48.2 96.335 47.95 97.435 47.45C98.5683 46.95 99.535 46.2667 100.335 45.4C101.168 44.5 101.818 43.4667 102.285 42.3C102.752 41.1 102.985 39.8167 102.985 38.45C102.985 37.0833 102.752 35.8167 102.285 34.65C101.818 33.45 101.168 32.4167 100.335 31.55C99.535 30.6833 98.5683 30 97.435 29.5C96.335 29 95.1516 28.75 93.885 28.75C92.6183 28.75 91.4183 29 90.285 29.5C89.185 30 88.2183 30.6833 87.385 31.55C86.585 32.4167 85.935 33.45 85.435 34.65C84.9683 35.8167 84.735 37.0833 84.735 38.45C84.735 39.8167 84.9683 41.1 85.435 42.3C85.9016 43.4667 86.535 44.5 87.335 45.4C88.1683 46.2667 89.1516 46.95 90.285 47.45C91.4183 47.95 92.6183 48.2 93.885 48.2ZM115.326 25.95V41.05C115.326 43.25 115.959 45 117.226 46.3C118.493 47.6 120.193 48.25 122.326 48.25C123.826 48.25 125.159 47.9167 126.326 47.25C127.526 46.55 128.493 45.5833 129.226 44.35V25.95H132.926V51H129.226V48.1C128.259 49.2333 127.109 50.0833 125.776 50.65C124.476 51.2167 123.009 51.5 121.376 51.5C118.509 51.5 116.176 50.6 114.376 48.8C112.576 47 111.676 44.6667 111.676 41.8V25.95H115.326ZM139.217 61.25V25.95H142.867V28.65C143.934 27.6167 145.151 26.85 146.517 26.35C147.917 25.8167 149.401 25.55 150.967 25.55C152.734 25.55 154.384 25.8833 155.917 26.55C157.451 27.2167 158.784 28.1333 159.917 29.3C161.051 30.4333 161.934 31.8 162.567 33.4C163.234 34.9667 163.567 36.65 163.567 38.45C163.567 40.25 163.234 41.95 162.567 43.55C161.934 45.15 161.051 46.5333 159.917 47.7C158.784 48.8333 157.434 49.7333 155.867 50.4C154.334 51.0667 152.684 51.4 150.917 51.4C149.451 51.4 148.034 51.15 146.667 50.65C145.301 50.15 144.051 49.4333 142.917 48.5V61.25H139.217ZM150.617 28.8C149.051 28.8 147.584 29.1167 146.217 29.75C144.884 30.35 143.784 31.2 142.917 32.3V44.7C143.784 45.7667 144.901 46.6167 146.267 47.25C147.634 47.85 149.084 48.15 150.617 48.15C153.251 48.15 155.451 47.2333 157.217 45.4C159.017 43.5333 159.917 41.2333 159.917 38.5C159.917 37.1333 159.667 35.8667 159.167 34.7C158.701 33.5 158.051 32.4667 157.217 31.6C156.384 30.7333 155.401 30.05 154.267 29.55C153.134 29.05 151.917 28.8 150.617 28.8Z" fill="white"/>
</svg>
