<svg width="198" height="66" viewBox="0 0 198 66" fill="none" xmlns="http://www.w3.org/2000/svg">
<path d="M0 10C0 4.47715 4.47715 0 10 0H188C193.523 0 198 4.47715 198 10V56C198 61.5229 193.523 66 188 66H10C4.47715 66 0 61.5228 0 56V10Z" fill="white"/>
<path d="M17.7948 26.1958C18.4604 25.3559 19.6495 25.252 20.4506 25.9638L31.9127 36.1474C32.7139 36.8592 32.8237 38.1171 32.1581 38.9571C31.4925 39.797 30.3034 39.9008 29.5022 39.189L18.0402 29.0055C17.239 28.2937 17.1291 27.0358 17.7948 26.1958Z" fill="#0094FF"/>
<path d="M17.9552 49.3444C17.2896 48.5044 17.3995 47.2465 18.2006 46.5347L29.6627 36.3512C30.4639 35.6393 31.6529 35.7432 32.3186 36.5831C32.9842 37.4231 32.8743 38.681 32.0731 39.3928L20.6111 49.5763C19.8099 50.2881 18.6209 50.1843 17.9552 49.3444Z" fill="#0094FF"/>
<path d="M33.25 49.4118C33.25 48.5346 33.9611 47.8235 34.8382 47.8235H50.4118C51.2889 47.8235 52 48.5346 52 49.4118C52 50.2889 51.2889 51 50.4118 51H34.8382C33.9611 51 33.25 50.2889 33.25 49.4118Z" fill="#99D4FF"/>
<path d="M74.2904 48.1C75.6238 48.1 76.9071 47.8333 78.1404 47.3C79.3738 46.7667 80.5238 45.9833 81.5904 44.95L83.8904 47.45C82.5571 48.7167 81.0571 49.7 79.3904 50.4C77.7238 51.1 75.9904 51.45 74.1904 51.45C72.4238 51.45 70.7571 51.1167 69.1904 50.45C67.6238 49.7833 66.2738 48.8667 65.1404 47.7C64.0071 46.5333 63.1071 45.15 62.4404 43.55C61.7738 41.95 61.4404 40.25 61.4404 38.45C61.4404 36.65 61.7738 34.9667 62.4404 33.4C63.1071 31.8 64.0071 30.4167 65.1404 29.25C66.2738 28.0833 67.6238 27.1667 69.1904 26.5C70.7571 25.8 72.4238 25.45 74.1904 25.45C75.9904 25.45 77.7404 25.8 79.4404 26.5C81.1738 27.2 82.6904 28.1667 83.9904 29.4L81.6404 32.1C80.6404 31.0667 79.4904 30.2667 78.1904 29.7C76.8904 29.1333 75.5738 28.85 74.2404 28.85C72.9738 28.85 71.7738 29.1 70.6404 29.6C69.5071 30.1 68.5238 30.7833 67.6904 31.65C66.8904 32.5167 66.2571 33.5333 65.7904 34.7C65.3238 35.8667 65.0904 37.1167 65.0904 38.45C65.0904 39.8167 65.3238 41.1 65.7904 42.3C66.2904 43.4667 66.9404 44.4833 67.7404 45.35C68.5738 46.1833 69.5571 46.85 70.6904 47.35C71.8238 47.85 73.0238 48.1 74.2904 48.1ZM91.9252 15.15V51H88.2252V16L91.9252 15.15ZM97.085 38.45C97.085 36.65 97.4183 34.95 98.085 33.35C98.7516 31.75 99.6516 30.3667 100.785 29.2C101.952 28.0333 103.318 27.1167 104.885 26.45C106.452 25.7833 108.118 25.45 109.885 25.45C111.652 25.45 113.302 25.7833 114.835 26.45C116.402 27.1167 117.752 28.0333 118.885 29.2C120.052 30.3667 120.968 31.75 121.635 33.35C122.302 34.95 122.635 36.65 122.635 38.45C122.635 40.2833 122.302 42 121.635 43.6C120.968 45.2 120.052 46.5833 118.885 47.75C117.752 48.9167 116.402 49.8333 114.835 50.5C113.302 51.1667 111.652 51.5 109.885 51.5C108.118 51.5 106.452 51.1667 104.885 50.5C103.318 49.8333 101.952 48.9167 100.785 47.75C99.6516 46.5833 98.7516 45.2 98.085 43.6C97.4183 42 97.085 40.2833 97.085 38.45ZM109.885 48.2C111.152 48.2 112.335 47.95 113.435 47.45C114.568 46.95 115.535 46.2667 116.335 45.4C117.168 44.5 117.818 43.4667 118.285 42.3C118.752 41.1 118.985 39.8167 118.985 38.45C118.985 37.0833 118.752 35.8167 118.285 34.65C117.818 33.45 117.168 32.4167 116.335 31.55C115.535 30.6833 114.568 30 113.435 29.5C112.335 29 111.152 28.75 109.885 28.75C108.618 28.75 107.418 29 106.285 29.5C105.185 30 104.218 30.6833 103.385 31.55C102.585 32.4167 101.935 33.45 101.435 34.65C100.968 35.8167 100.735 37.0833 100.735 38.45C100.735 39.8167 100.968 41.1 101.435 42.3C101.902 43.4667 102.535 44.5 103.335 45.4C104.168 46.2667 105.152 46.95 106.285 47.45C107.418 47.95 108.618 48.2 109.885 48.2ZM131.326 25.95V41.05C131.326 43.25 131.959 45 133.226 46.3C134.493 47.6 136.193 48.25 138.326 48.25C139.826 48.25 141.159 47.9167 142.326 47.25C143.526 46.55 144.493 45.5833 145.226 44.35V25.95H148.926V51H145.226V48.1C144.259 49.2333 143.109 50.0833 141.776 50.65C140.476 51.2167 139.009 51.5 137.376 51.5C134.509 51.5 132.176 50.6 130.376 48.8C128.576 47 127.676 44.6667 127.676 41.8V25.95H131.326ZM155.217 61.25V25.95H158.867V28.65C159.934 27.6167 161.151 26.85 162.517 26.35C163.917 25.8167 165.401 25.55 166.967 25.55C168.734 25.55 170.384 25.8833 171.917 26.55C173.451 27.2167 174.784 28.1333 175.917 29.3C177.051 30.4333 177.934 31.8 178.567 33.4C179.234 34.9667 179.567 36.65 179.567 38.45C179.567 40.25 179.234 41.95 178.567 43.55C177.934 45.15 177.051 46.5333 175.917 47.7C174.784 48.8333 173.434 49.7333 171.867 50.4C170.334 51.0667 168.684 51.4 166.917 51.4C165.451 51.4 164.034 51.15 162.667 50.65C161.301 50.15 160.051 49.4333 158.917 48.5V61.25H155.217ZM166.617 28.8C165.051 28.8 163.584 29.1167 162.217 29.75C160.884 30.35 159.784 31.2 158.917 32.3V44.7C159.784 45.7667 160.901 46.6167 162.267 47.25C163.634 47.85 165.084 48.15 166.617 48.15C169.251 48.15 171.451 47.2333 173.217 45.4C175.017 43.5333 175.917 41.2333 175.917 38.5C175.917 37.1333 175.667 35.8667 175.167 34.7C174.701 33.5 174.051 32.4667 173.217 31.6C172.384 30.7333 171.401 30.05 170.267 29.55C169.134 29.05 167.917 28.8 166.617 28.8Z" fill="#111111"/>
</svg>
